<?xml version="1.0"?>
<svg version="1.1" xmlns="http://www.w3.org/2000/svg" width="400" height="200" style=""><path fill="#1a79ff" d="M16.26,121.6l0-3.06l2.7-1.08l0-16.92l-2.7-1.08l0-3.06l8.64-0.18l9.72,16.632l0-12.312l-2.628-1.08l0-3.06l10.26-0.18l0,3.24l-2.7,1.08l0,21.06l-6.012,0l-9.648-16.308l0,12.168l2.808,1.08l0,3.06l-10.44,0z M56.81436,101.8c5.832,0,9.072,3.528,9.072,9.72c0,6.48-3.78,10.44-9.612,10.44c-5.868,0-9.18-3.06-9.18-9.9c0-6.48,3.852-10.26,9.72-10.26z M56.63436,106.12c-2.628,0-3.96,1.44-3.96,5.76c0,3.96,1.152,5.76,3.78,5.76c2.592,0,3.852-1.62,3.852-5.94c0-3.672-1.08-5.58-3.672-5.58z M78.46872,102.16l0.324,2.484s2.592-2.844,5.004-2.844c1.98,0,3.348,0.648,3.348,0.648l-0.288,6.912l-3.24,0l-0.54-3.06c-2.088,0-3.888,2.016-3.888,2.016l0,9.504l3.6,0.9l0,2.88l-11.88,0l0-2.88l2.88-0.9l0-11.7l-2.88-0.9l0-2.88z M103.86708,116.992l1.296,2.736c-1.764,1.296-3.78,2.232-6.12,2.232c-4.14,0-5.328-2.88-5.328-7.02l0-8.28l-3.348,0l0-3.492l3.348-0.468l0-4.968l5.4-0.972l0,5.94l5.04,0l0,3.96l-5.04,0l0,7.92c0,2.304,0.396,3.24,1.908,3.24c0.972,0,2.376-0.576,2.844-0.828z M117.02544,93.7l0,10.548c1.044-0.864,3.384-2.448,6.048-2.448c3.672,0,5.652,2.448,5.652,6.48l0,9.54l2.52,0.9l0,2.88l-9.792,0l0-2.88l1.872-0.864l0-8.712c0-1.8-0.72-2.88-2.376-2.88c-2.016,0-3.924,1.908-3.924,1.908l0,9.648l1.908,0.9l0,2.88l-10.188,0l0-2.88l2.88-0.9l0-20.232l-2.88-0.72l0-2.88z M139.2558,115.3l0.288,2.34s1.26,0.36,3.024,0.36c1.98,0,2.952-0.612,2.952-1.764c0-2.952-9.612-1.872-9.612-8.28c0-4.5,3.6-6.156,7.416-6.156c3.24,0,6.696,1.08,6.696,1.08l-0.144,5.4l-3.06,0l-0.54-2.16s-1.044-0.36-2.484-0.36c-1.548,0-2.484,0.648-2.484,1.836c0,2.916,9.612,1.656,9.612,7.884c0,4.14-3.348,6.48-8.28,6.48c-3.42,0-6.624-0.792-6.624-0.792l0-5.868l3.24,0z M158.17416,96.22c0-2.052,1.476-3.24,3.096-3.24c1.872,0,3.024,0.972,3.024,3.24c0,2.124-1.548,3.276-3.024,3.276c-1.944,0-3.096-1.152-3.096-3.276z M164.22216,117.82l2.52,0.9l0,2.88l-10.8,0l0-2.88l2.88-0.9l0-11.7l-2.88-0.9l0-2.88l8.28-0.18l0,15.66z M184.90452,121.6l-0.324-1.908c-0.504,0.504-2.34,2.268-5.436,2.268c-5.04,0-7.38-3.672-7.38-9.612c0-6.768,3.24-10.548,9.828-10.548c0.864,0,1.908,0.18,2.7,0.36l0-4.572l-2.88-0.72l0-2.88l8.28-0.288l0,24.048l2.88,0.72l0,2.88z M184.29252,115.588l0-8.928c-0.684-0.324-1.764-0.54-2.808-0.54c-3.06,0-4.14,2.34-4.14,5.94c0,3.636,1.008,5.58,3.456,5.58c2.304,0,3.492-2.052,3.492-2.052z M214.62288,113.068l-11.952,0c0.216,2.88,1.872,4.572,4.356,4.572c2.988,0,6.048-1.692,6.048-1.692l1.548,2.988s-3.6,3.024-8.208,3.024c-6.192,0-9.36-3.6-9.36-9.72c0-6.3,3.564-10.44,9.612-10.44c5.364,0,8.172,3.312,8.172,8.46c0,1.368-0.216,2.7-0.216,2.808z M202.74288,109.72l6.516,0c0-2.052-0.864-3.6-2.952-3.6c-2.016,0-3.276,1.476-3.564,3.6z"/><path fill="#000333" d="M225.04124,121.6l0-3.06l2.7-1.08l0-16.92l-2.7-1.08l0-3.06l10.98-0.18l0,3.24l-2.7,1.08l0,16.92l2.7,1.08l0,3.06l-10.98,0z M274.8116,118.72l0,2.88l-9.756,0l0-2.88l1.908-0.9l0-8.568c0-1.98-0.576-2.952-2.088-2.952c-2.34,0-3.996,1.872-3.996,1.872l0,9.648l1.872,0.9l0,2.88l-9.144,0l0-2.88l1.872-0.9l0-8.568c0-1.98-0.504-2.952-2.052-2.952c-2.34,0-4.032,1.872-4.032,1.872l0,9.648l1.908,0.9l0,2.88l-10.08,0l0-2.88l2.772-0.9l0-11.7l-2.736-0.9l0-2.88l7.524-0.18l0.252,2.556s3.132-2.916,6.3-2.916c2.556,0,4.14,1.188,4.968,3.096c0.612-0.612,3.312-3.096,6.516-3.096c3.78,0,5.544,2.448,5.544,6.48l0,9.54z M278.93396,102.34l7.668-0.18l0.324,2.016s2.448-2.376,5.328-2.376c5.004,0,7.488,3.708,7.488,9.54c0,6.66-3.168,10.62-9.468,10.62c-1.044,0-2.124-0.144-3.06-0.36l0,4.572l3.42,0.828l0,2.88l-11.628,0l0-2.88l2.808-0.828l0-20.052l-2.88-0.9l0-2.88z M287.21396,108.1l0,9.18c0.576,0.252,1.44,0.54,2.808,0.54c3.096,0,4.14-2.16,4.14-5.832c0-3.636-0.972-5.868-3.6-5.868c-2.34,0-3.348,1.98-3.348,1.98z M314.66432,101.8c5.832,0,9.072,3.528,9.072,9.72c0,6.48-3.78,10.44-9.612,10.44c-5.868,0-9.18-3.06-9.18-9.9c0-6.48,3.852-10.26,9.72-10.26z M314.48432,106.12c-2.628,0-3.96,1.44-3.96,5.76c0,3.96,1.152,5.76,3.78,5.76c2.592,0,3.852-1.62,3.852-5.94c0-3.672-1.08-5.58-3.672-5.58z M336.31868,102.16l0.324,2.484s2.592-2.844,5.004-2.844c1.98,0,3.348,0.648,3.348,0.648l-0.288,6.912l-3.24,0l-0.54-3.06c-2.088,0-3.888,2.016-3.888,2.016l0,9.504l3.6,0.9l0,2.88l-11.88,0l0-2.88l2.88-0.9l0-11.7l-2.88-0.9l0-2.88z M361.71704,116.992l1.296,2.736c-1.764,1.296-3.78,2.232-6.12,2.232c-4.14,0-5.328-2.88-5.328-7.02l0-8.28l-3.348,0l0-3.492l3.348-0.468l0-4.968l5.4-0.972l0,5.94l5.04,0l0,3.96l-5.04,0l0,7.92c0,2.304,0.396,3.24,1.908,3.24c0.972,0,2.376-0.576,2.844-0.828z M370.4834,115.3l0.288,2.34s1.26,0.36,3.024,0.36c1.98,0,2.952-0.612,2.952-1.764c0-2.952-9.612-1.872-9.612-8.28c0-4.5,3.6-6.156,7.416-6.156c3.24,0,6.696,1.08,6.696,1.08l-0.144,5.4l-3.06,0l-0.54-2.16s-1.044-0.36-2.484-0.36c-1.548,0-2.484,0.648-2.484,1.836c0,2.916,9.612,1.656,9.612,7.884c0,4.14-3.348,6.48-8.28,6.48c-3.42,0-6.624-0.792-6.624-0.792l0-5.868l3.24,0z"/></svg>
