<?xml version="1.0" standalone="no"?>
<!DOCTYPE svg PUBLIC "-//W3C//DTD SVG 20010904//EN"
 "http://www.w3.org/TR/2001/REC-SVG-20010904/DTD/svg10.dtd">
<svg version="1.0" xmlns="http://www.w3.org/2000/svg"
 width="750.000000pt" height="500.000000pt" viewBox="0 0 750.000000 500.000000"
 preserveAspectRatio="xMidYMid meet">
<metadata>
Created by potrace 1.16, written by Peter Selinger 2001-2019
</metadata>
<g transform="translate(0.000000,500.000000) scale(0.100000,-0.100000)"
fill="#000000" stroke="none">
<path d="M1442 4178 l3 -183 43 -3 42 -3 0 98 0 98 54 -95 53 -95 47 -3 46 -3
0 88 c1 87 1 88 15 49 16 -47 69 -103 112 -122 96 -41 208 18 231 122 28 131
-101 258 -229 224 -47 -13 -105 -68 -118 -113 -8 -28 -9 -24 -10 34 -1 74 -11
89 -58 89 l-32 0 -3 -97 -3 -97 -34 64 c-57 110 -76 130 -122 130 l-39 0 2
-182z m535 56 c21 -21 24 -32 20 -62 -17 -106 -167 -111 -167 -6 0 26 8 43 29
65 38 38 82 39 118 3z"/>
<path d="M2112 4178 l3 -183 43 -3 42 -3 0 45 c0 59 17 59 52 1 26 -43 30 -45
73 -45 25 0 45 3 45 8 0 4 -16 32 -35 62 -30 49 -32 57 -19 71 8 9 19 30 24
47 26 93 -68 182 -193 182 l-37 0 2 -182z"/>
<path d="M2380 4322 c0 -43 14 -62 47 -62 23 0 23 -1 23 -123 0 -82 4 -127 12
-135 7 -7 29 -12 50 -12 l38 0 0 135 0 135 30 0 c28 0 30 2 30 38 0 21 -5 43
-12 50 -8 8 -48 12 -115 12 l-103 0 0 -38z"/>
<path d="M2620 4187 c0 -121 4 -177 12 -185 7 -7 29 -12 50 -12 l38 0 0 65 0
65 40 0 39 0 3 -62 3 -63 43 -3 42 -3 0 173 c0 191 -2 198 -57 198 l-33 0 0
-70 0 -70 -40 0 -40 0 0 60 c0 66 -12 80 -69 80 l-31 0 0 -173z"/>
<path d="M2974 4350 c-53 -21 -70 -98 -36 -155 19 -30 41 -45 95 -65 24 -8 26
-13 17 -30 -14 -26 -42 -26 -58 0 -9 15 -23 20 -52 20 -39 0 -40 -1 -34 -27
22 -89 110 -136 184 -98 93 48 76 173 -31 218 -27 12 -49 25 -49 29 0 15 31
21 43 9 6 -6 29 -11 50 -11 38 0 39 1 32 28 -9 36 -33 62 -72 78 -36 16 -58
17 -89 4z"/>
<path d="M3172 4178 l3 -183 43 -3 42 -3 0 173 c0 191 -2 198 -57 198 l-33 0
2 -182z"/>
<path d="M3292 4178 l3 -183 72 0 c80 0 110 15 151 75 l22 33 0 -45 c0 -24 5
-49 12 -56 8 -8 49 -12 120 -12 l108 0 0 38 c0 51 -14 62 -82 62 -51 0 -58 2
-58 20 0 18 7 20 55 20 l55 0 0 38 c0 49 -14 62 -67 62 -32 0 -43 4 -43 15 0
12 14 15 70 15 l70 0 0 38 c0 21 -5 43 -12 50 -8 8 -49 12 -120 12 l-108 0 0
-67 0 -68 -19 30 c-40 67 -110 105 -194 105 l-37 0 2 -182z"/>
<path d="M3892 4178 l3 -183 43 -3 42 -3 0 173 c0 191 -2 198 -57 198 l-33 0
2 -182z"/>
<path d="M4019 4358 c-8 -17 -22 -351 -14 -359 5 -5 26 -9 47 -9 36 0 38 2 39
33 0 17 4 40 8 51 6 15 10 10 21 -23 17 -53 30 -63 76 -59 35 3 39 6 55 53
l17 50 1 -40 c1 -50 15 -65 61 -65 l35 0 -8 172 c-10 192 -13 201 -76 196 -34
-3 -35 -4 -65 -95 -17 -51 -33 -93 -37 -93 -4 0 -19 37 -34 83 -15 45 -34 88
-43 95 -13 10 -79 18 -83 10z"/>
<path d="M4382 4179 l3 -184 43 -3 c41 -3 42 -2 42 27 0 22 5 31 16 31 51 0
123 71 125 122 0 14 7 3 19 -30 20 -60 69 -117 117 -138 96 -41 208 18 231
122 28 131 -101 258 -229 224 -47 -13 -108 -70 -116 -111 -7 -36 -23 -49 -23
-18 0 32 -36 85 -76 109 -20 13 -59 24 -94 27 l-60 6 2 -184z m485 55 c21 -21
24 -32 20 -62 -17 -106 -167 -111 -167 -6 0 26 8 43 29 65 38 38 82 39 118 3z"/>
<path d="M5002 4178 l3 -183 43 -3 42 -3 0 45 c0 59 17 59 52 1 26 -43 30 -45
73 -45 25 0 45 3 45 8 0 4 -16 32 -35 62 -30 49 -32 57 -19 71 8 9 19 30 24
47 26 93 -68 182 -193 182 l-37 0 2 -182z"/>
<path d="M5270 4322 c0 -43 14 -62 47 -62 23 0 23 -1 23 -123 0 -82 4 -127 12
-135 7 -7 29 -12 50 -12 l38 0 0 135 0 135 30 0 c28 0 30 2 30 38 0 21 -5 43
-12 50 -8 8 -48 12 -115 12 l-103 0 0 -38z"/>
<path d="M5574 4350 c-53 -21 -70 -98 -36 -155 19 -30 41 -45 95 -65 24 -8 26
-13 17 -30 -14 -26 -42 -26 -58 0 -9 15 -23 20 -52 20 -39 0 -40 -1 -34 -27
22 -89 110 -136 184 -98 93 48 76 173 -31 218 -27 12 -49 25 -49 29 0 15 31
21 43 9 6 -6 29 -11 50 -11 38 0 39 1 32 28 -9 36 -33 62 -72 78 -36 16 -58
17 -89 4z"/>
<path d="M3357 2933 c-4 -58 -7 -175 -7 -260 l0 -153 40 0 40 0 0 105 c0 95 7
123 25 95 3 -6 11 -53 17 -105 11 -95 11 -95 39 -95 30 0 30 -1 44 115 17 133
35 127 35 -10 l0 -105 39 0 c36 0 39 2 42 33 2 17 3 132 1 255 l-3 222 -38 0
-37 0 -33 -115 c-18 -63 -37 -118 -41 -120 -13 -8 -19 7 -55 123 -32 105 -42
119 -86 121 -13 1 -17 -17 -22 -106z"/>
<path d="M4187 2903 c-4 -71 -7 -185 -7 -255 l0 -128 35 0 35 0 0 105 c0 98 1
105 20 105 25 0 40 -29 40 -78 0 -22 3 -60 6 -86 6 -44 8 -46 38 -46 l31 0 -3
78 c-4 103 -8 119 -39 148 l-26 24 27 21 c25 19 26 25 26 113 0 118 -7 126
-107 126 l-70 0 -6 -127z"/>
<path d="M1540 2765 l0 -255 25 0 c25 0 25 0 25 99 0 113 11 135 51 103 20
-17 23 -30 27 -111 l4 -91 30 0 30 0 -4 96 c-4 90 -6 98 -31 120 -33 28 -33
31 -2 60 23 21 25 30 25 113 0 111 -9 121 -112 121 l-68 0 0 -255z"/>
<path d="M3230 2764 l0 -255 33 3 32 3 3 253 2 252 -35 0 -35 0 0 -256z"/>
<path d="M3730 2770 l0 -250 30 0 29 0 3 91 3 91 40 14 c66 22 75 41 75 156 0
92 -2 101 -25 123 -21 22 -33 25 -90 25 l-65 0 0 -250z"/>
<path d="M3971 3001 c-26 -26 -35 -116 -29 -296 4 -122 7 -147 23 -165 25 -27
103 -28 136 -1 24 19 24 21 24 229 0 192 -2 212 -19 231 -26 28 -107 30 -135
2z m89 -70 c5 -11 10 -82 10 -158 0 -147 -9 -183 -44 -170 -14 6 -16 27 -16
170 0 90 3 167 7 170 12 13 32 7 43 -12z"/>
<path d="M4437 3013 c-4 -3 -7 -17 -7 -29 0 -18 6 -23 33 -26 l32 -3 3 -215
c3 -225 3 -230 49 -230 l23 0 2 223 3 222 33 3 c28 3 32 7 32 33 l0 29 -98 0
c-54 0 -102 -3 -105 -7z"/>
<path d="M4726 2989 c-23 -26 -26 -40 -26 -100 l0 -69 65 -71 c53 -57 65 -77
65 -104 0 -28 -20 -65 -35 -65 -15 0 -35 38 -35 66 0 32 -2 34 -35 34 -32 0
-35 -2 -35 -29 0 -74 44 -131 102 -131 52 0 77 15 94 55 28 69 14 134 -41 185
-50 46 -85 101 -85 136 0 31 21 64 40 64 15 0 30 -36 30 -69 0 -28 3 -31 30
-31 30 0 30 1 30 55 0 74 -28 105 -94 105 -37 0 -48 -5 -70 -31z"/>
<path d="M1040 2760 l0 -250 30 0 30 0 0 120 c0 98 3 120 15 120 15 0 25 -30
52 -157 13 -63 21 -83 36 -87 46 -12 47 -9 47 255 l0 249 -31 0 -31 0 3 -112
c4 -99 2 -113 -13 -116 -16 -3 -21 15 -63 206 -4 18 -12 22 -40 22 l-35 0 0
-250z"/>
<path d="M1325 2985 c-25 -24 -25 -25 -25 -230 0 -192 1 -206 20 -225 14 -14
33 -20 63 -20 84 1 97 33 97 250 0 215 -13 250 -92 250 -28 0 -46 -7 -63 -25z
m89 -61 c8 -20 8 -298 0 -318 -8 -21 -50 -21 -58 0 -10 27 -7 294 4 315 13 23
46 25 54 3z"/>
<path d="M1790 2980 c0 -26 3 -30 29 -30 17 0 31 -6 35 -16 3 -9 6 -108 6
-220 l0 -204 30 0 30 0 2 218 3 217 33 3 c28 3 32 7 32 33 l0 29 -100 0 -100
0 0 -30z"/>
<path d="M2050 2760 l0 -250 30 0 29 0 3 113 c3 108 4 112 26 115 44 7 52 -12
52 -124 l0 -104 25 0 25 0 0 250 0 250 -25 0 c-25 0 -25 -1 -25 -87 0 -49 -4
-94 -9 -101 -5 -8 -21 -12 -37 -10 l-29 3 -3 98 -3 97 -29 0 -30 0 0 -250z"/>
<path d="M2347 2999 c-28 -16 -47 -64 -47 -119 0 -63 14 -91 79 -155 45 -44
51 -54 51 -91 0 -77 -62 -87 -68 -10 -3 33 -6 36 -33 36 -28 0 -29 -2 -29 -46
0 -80 70 -126 143 -93 33 15 47 49 47 112 0 59 -9 76 -82 154 -42 46 -48 57
-48 96 0 84 62 91 68 8 3 -38 5 -41 33 -41 28 0 29 2 29 46 0 48 -13 81 -39
101 -19 15 -80 16 -104 2z"/>
<path d="M2550 2760 l0 -250 30 0 30 0 0 250 0 250 -30 0 -30 0 0 -250z"/>
<path d="M2680 2760 l0 -250 59 0 c49 0 62 4 83 25 34 33 38 60 38 237 0 211
-14 238 -124 238 l-56 0 0 -250z m112 150 c21 -41 25 -194 7 -265 -12 -46 -41
-81 -58 -70 -7 4 -11 71 -11 191 l0 185 23 -3 c13 -2 29 -16 39 -38z"/>
<path d="M2910 2760 l0 -250 75 0 75 0 0 34 c0 34 -1 35 -42 38 l-43 3 0 70 0
70 38 3 c35 3 37 5 37 37 0 33 -2 35 -40 41 l-41 7 3 66 3 66 43 3 c39 3 42 5
42 33 l0 29 -75 0 -75 0 0 -250z"/>
<path d="M972 1548 l3 -183 43 -3 42 -3 0 98 0 98 54 -95 53 -95 47 -3 46 -3
0 88 c1 87 1 88 15 49 16 -47 69 -103 112 -122 96 -41 208 18 231 122 28 131
-101 258 -229 224 -47 -13 -105 -68 -118 -113 -8 -28 -9 -24 -10 34 -1 74 -11
89 -58 89 l-32 0 -3 -97 -3 -97 -34 64 c-57 110 -76 130 -122 130 l-39 0 2
-182z m535 56 c21 -21 24 -32 20 -62 -17 -106 -167 -111 -167 -6 0 26 8 43 29
65 38 38 82 39 118 3z"/>
<path d="M1642 1548 l3 -183 43 -3 42 -3 0 45 c0 59 17 59 52 1 26 -43 30 -45
73 -45 25 0 45 3 45 8 0 4 -16 32 -35 62 -30 49 -32 57 -19 71 8 9 19 30 24
47 26 93 -68 182 -193 182 l-37 0 2 -182z"/>
<path d="M1910 1692 c0 -43 14 -62 47 -62 23 0 23 -1 23 -123 0 -82 4 -127 12
-135 7 -7 29 -12 50 -12 l38 0 0 135 0 135 30 0 c28 0 30 2 30 38 0 21 -5 43
-12 50 -8 8 -48 12 -115 12 l-103 0 0 -38z"/>
<path d="M2150 1557 c0 -121 4 -177 12 -185 7 -7 29 -12 50 -12 l38 0 0 65 0
65 40 0 39 0 3 -62 3 -63 43 -3 42 -3 0 173 c0 191 -2 198 -57 198 l-33 0 0
-70 0 -70 -40 0 -40 0 0 60 c0 66 -12 80 -69 80 l-31 0 0 -173z"/>
<path d="M2504 1720 c-53 -21 -70 -98 -35 -156 17 -28 73 -64 99 -64 18 0 24
-20 12 -35 -17 -21 -43 -19 -58 5 -9 15 -23 20 -52 20 -39 0 -40 -1 -34 -27
22 -89 110 -136 184 -98 93 48 76 173 -31 218 -27 12 -49 25 -49 29 0 15 31
21 43 9 6 -6 29 -11 50 -11 38 0 39 1 32 28 -9 36 -33 62 -72 78 -36 16 -58
17 -89 4z"/>
<path d="M2702 1548 l3 -183 43 -3 42 -3 0 173 c0 191 -2 198 -57 198 l-33 0
2 -182z"/>
<path d="M2822 1548 l3 -183 72 0 c80 0 110 15 151 75 l22 33 0 -45 c0 -24 5
-49 12 -56 8 -8 49 -12 120 -12 l108 0 0 38 c0 51 -14 62 -82 62 -51 0 -58 2
-58 20 0 18 7 20 55 20 l55 0 0 38 c0 49 -14 62 -67 62 -32 0 -43 4 -43 15 0
12 14 15 70 15 l70 0 0 38 c0 21 -5 43 -12 50 -8 8 -49 12 -120 12 l-108 0 0
-67 0 -68 -19 30 c-40 67 -110 105 -194 105 l-37 0 2 -182z"/>
<path d="M3420 1547 c0 -121 4 -177 12 -185 7 -7 29 -12 50 -12 l38 0 0 173
c0 121 -4 177 -12 185 -7 7 -29 12 -50 12 l-38 0 0 -173z"/>
<path d="M3550 1678 c0 -24 -5 -101 -10 -172 -11 -147 -8 -156 51 -156 37 0
39 2 40 33 0 17 4 40 8 51 6 15 9 11 19 -22 16 -51 32 -64 78 -60 33 3 39 7
50 38 10 30 13 32 19 15 14 -42 23 -50 61 -53 l39 -3 -8 173 c-10 192 -12 198
-77 198 l-36 0 -29 -91 c-16 -50 -32 -92 -36 -95 -4 -2 -20 33 -34 78 -15 46
-32 89 -38 96 -5 6 -29 12 -53 12 l-44 0 0 -42z"/>
<path d="M3910 1547 c0 -121 4 -177 12 -185 7 -7 29 -12 50 -12 36 0 38 2 38
30 0 21 5 30 16 30 51 0 123 71 125 122 0 16 4 11 13 -18 19 -61 46 -102 88
-130 101 -71 239 -18 267 102 8 36 9 32 10 -36 1 -45 6 -81 13 -88 7 -7 29
-12 50 -12 l38 0 0 45 c0 25 4 45 9 45 5 0 22 -19 38 -42 26 -39 33 -43 76
-46 26 -2 47 1 47 5 0 4 -16 32 -34 62 l-34 55 20 27 c25 34 27 98 5 133 -9
14 -33 37 -53 53 -30 22 -49 28 -105 31 l-69 4 -1 -98 c-1 -88 -2 -94 -11 -56
-12 56 -78 125 -135 142 -84 25 -162 -12 -205 -100 -20 -41 -27 -49 -28 -31
-1 71 -91 141 -183 141 l-57 0 0 -173z m487 58 c63 -44 14 -155 -69 -155 -12
0 -32 10 -45 22 -71 67 33 189 114 133z"/>
<path d="M4810 1682 c0 -43 14 -62 47 -62 23 0 23 -1 23 -123 0 -82 4 -127 12
-135 7 -7 29 -12 50 -12 l38 0 0 135 0 135 30 0 c28 0 30 2 30 38 0 21 -5 43
-12 50 -8 8 -48 12 -115 12 l-103 0 0 -38z"/>
<path d="M5092 1695 c-17 -14 -33 -39 -37 -55 -12 -57 41 -129 109 -146 20 -5
26 -12 24 -28 -4 -28 -36 -33 -54 -7 -20 28 -94 31 -94 4 0 -29 37 -82 72
-103 39 -24 78 -25 118 -5 94 48 76 168 -34 223 -36 18 -45 27 -37 35 9 9 17
8 31 -1 11 -6 36 -12 56 -12 34 0 36 1 29 28 -20 81 -122 118 -183 67z"/>
</g>
</svg>
